<svg width="1200" height="630" viewBox="0 0 1200 630" fill="none" xmlns="http://www.w3.org/2000/svg">
<rect width="1200" height="630" fill="#05050F"/>
<defs>
<radialGradient id="grad1" cx="50%" cy="50%" r="50%" fx="50%" fy="50%">
<stop offset="0%" style="stop-color:rgba(255, 220, 150, 0.3);stop-opacity:1" />
<stop offset="100%" style="stop-color:rgba(255, 220, 150, 0);stop-opacity:1" />
</radialGradient>
<radialGradient id="grad2" cx="50%" cy="50%" r="50%" fx="50%" fy="50%">
<stop offset="0%" style="stop-color:rgba(124, 58, 237, 0.2);stop-opacity:1" />
<stop offset="100%" style="stop-color:rgba(124, 58, 237, 0);stop-opacity:1" />
</radialGradient>
</defs>
<circle cx="600" cy="315" r="300" fill="url(#grad2)"/>
<circle cx="600" cy="315" r="150" fill="url(#grad1)"/>
<path d="M600 235.5L643.301 275.25L600 315L556.699 275.25L600 235.5Z" fill="white" fill-opacity="0.9"/>
<path d="M600 394.5L643.301 354.75L600 315L556.699 354.75L600 394.5Z" fill="white" fill-opacity="0.7"/>
<path d="M679.5 315L639.75 358.301L600 315L639.75 271.699L679.5 315Z" fill="white" fill-opacity="0.7"/>
<path d="M520.5 315L560.25 358.301L600 315L560.25 271.699L520.5 315Z" fill="white" fill-opacity="0.9"/>
<circle cx="600" cy="315" r="10" fill="white"/>
<text x="600" y="500" font-family="-apple-system, BlinkMacSystemFont, 'Segoe UI', Roboto, sans-serif" font-size="60" fill="white" text-anchor="middle" font-weight="300" letter-spacing="0.1em">
BRAHMA.IM
</text>
<text x="600" y="550" font-family="-apple-system, BlinkMacSystemFont, 'Segoe UI', Roboto, sans-serif" font-size="24" fill="#A0AEC0" text-anchor="middle" letter-spacing="0.05em">
Eternal Emergence
</text>
</svg>